<svg width="880" height="880" viewBox="0 0 880 880" fill="none" xmlns="http://www.w3.org/2000/svg">
<path opacity="0.25" fill-rule="evenodd" clip-rule="evenodd" d="M879 440C879 682.453 682.453 879 440 879C197.547 879 1 682.453 1 440C1 197.547 197.547 1 440 1C682.453 1 879 197.547 879 440ZM880 440C880 683.005 683.005 880 440 880C196.995 880 0 683.005 0 440C0 196.995 196.995 0 440 0C683.005 0 880 196.995 880 440ZM440 673C568.682 673 673 568.682 673 440C673 311.318 568.682 207 440 207C311.318 207 207 311.318 207 440C207 568.682 311.318 673 440 673ZM440 674C569.235 674 674 569.235 674 440C674 310.765 569.235 206 440 206C310.765 206 206 310.765 206 440C206 569.235 310.765 674 440 674ZM577 440C577 515.663 515.663 577 440 577C364.337 577 303 515.663 303 440C303 364.337 364.337 303 440 303C515.663 303 577 364.337 577 440ZM578 440C578 516.215 516.215 578 440 578C363.785 578 302 516.215 302 440C302 363.785 363.785 302 440 302C516.215 302 578 363.785 578 440ZM541 440C541 495.781 495.781 541 440 541C384.219 541 339 495.781 339 440C339 384.219 384.219 339 440 339C495.781 339 541 384.219 541 440ZM542 440C542 496.333 496.333 542 440 542C383.667 542 338 496.333 338 440C338 383.667 383.667 338 440 338C496.333 338 542 383.667 542 440Z" fill="white"/>
</svg>
